<svg width="128" height="128" viewBox="0 0 128 128" fill="none" xmlns="http://www.w3.org/2000/svg">
<g clip-path="url(#clip0_32_118)">
<path d="M108 0H20C8.9543 0 0 8.9543 0 20V108C0 119.046 8.9543 128 20 128H108C119.046 128 128 119.046 128 108V20C128 8.9543 119.046 0 108 0Z" fill="#0F0F0F"/>
<path d="M85.0855 68.6537C80.3311 55.0312 77.954 48.2199 80.709 42.5109C83.464 36.8019 90.2753 34.4247 103.898 29.6704L111.304 27.0855C124.927 22.3312 131.738 19.954 137.447 22.709C143.156 25.464 145.533 32.2753 150.288 45.8979L152.873 53.3044C157.627 66.927 160.004 73.7383 157.249 79.4473C154.494 85.1563 147.683 87.5335 134.06 92.2878L126.654 94.8727C113.031 99.627 106.22 102.004 100.511 99.2492C94.8019 96.4942 92.4247 89.6829 87.6704 76.0603L85.0855 68.6537Z" fill="white"/>
<path d="M29.2625 93.1527C28.1959 84.6449 27.6627 80.391 29.9744 77.4166C32.2861 74.4422 36.54 73.9089 45.0479 72.8424L49.6735 72.2625C58.1814 71.1959 62.4353 70.6627 65.4097 72.9744C68.3841 75.2861 68.9173 79.54 69.9839 88.0479L70.5638 92.6735C71.6303 101.181 72.1636 105.435 69.8519 108.41C67.5402 111.384 63.2862 111.917 54.7784 112.984L50.1527 113.564C41.6449 114.63 37.391 115.164 34.4166 112.852C31.4422 110.54 30.9089 106.286 29.8424 97.7784L29.2625 93.1527Z" fill="white"/>
<path d="M23.1202 4.49777C27.6682 -4.97674 29.9421 -9.714 34.2983 -11.2445C38.6545 -12.775 43.3918 -10.501 52.8663 -5.95312L58.0175 -3.48046C67.492 1.06746 72.2293 3.34141 73.7598 7.69762C75.2903 12.0538 73.0163 16.7911 68.4684 26.2656L65.9957 31.4168C61.4478 40.8913 59.1739 45.6286 54.8176 47.1591C50.4614 48.6896 45.7242 46.4156 36.2497 41.8677L31.0985 39.395C21.624 34.8471 16.8867 32.5732 15.3562 28.2169C13.8257 23.8607 16.0997 19.1235 20.6476 9.64897L23.1202 4.49777Z" fill="white"/>
</g>
<defs>
<clipPath id="clip0_32_118">
<rect width="128" height="128" rx="21" fill="white"/>
</clipPath>
</defs>
</svg>
